<svg xmlns="http://www.w3.org/2000/svg" baseProfile="full" version="1.1" style="fill: none;" width="360px" height="360px"><path style="stroke-width: 14px; stroke-linecap: round; stroke-linejoin: round; stroke: rgb(255, 255, 255); fill: rgb(255, 255, 255);" d="M345,180 A165,165 0 0,1 180,345 A165,165 0 0,1 15,180 A165,165 0 0,1 180,15 A165,165 0 0,1 345,180 "/><path style="stroke-width: 20px; stroke-linecap: round; stroke-linejoin: round; stroke: rgb(0, 0, 0); fill: none;" d="M180,75 A105,105 0 0,1 285,180 A105,105 0 0,1 180,285 A105,105 0 0,1 75,180 A105,105 0 0,1 180,75 "/><path style="stroke-width: 9px; stroke-linecap: round; stroke-linejoin: round; stroke: rgb(0, 0, 0); fill: none;" d="M75,255 L75,255 L285,255 M45,225 L45,225 L315,225 M30,195 L30,195 L330,195 M30,165 L30,165 L330,165 M45,135 L45,135 L315,135 M75,105 L75,105 L285,105 "/></svg>